<?xml version="1.0" standalone="no"?>
<!DOCTYPE svg PUBLIC "-//W3C//DTD SVG 20010904//EN"
 "http://www.w3.org/TR/2001/REC-SVG-20010904/DTD/svg10.dtd">
<svg version="1.0" xmlns="http://www.w3.org/2000/svg"
 width="500.000000pt" height="500.000000pt" viewBox="0 0 500.000000 500.000000"
 preserveAspectRatio="xMidYMid meet">

<g transform="translate(0.000000,500.000000) scale(0.100000,-0.100000)"
fill="#000000" stroke="none">
<path d="M1340 3735 c0 -10 10 -15 33 -15 51 0 131 -27 154 -52 12 -13 139
-264 282 -558 l261 -535 0 -312 c0 -174 -4 -323 -10 -337 -13 -36 -50 -56
-114 -63 -46 -5 -56 -9 -56 -24 0 -18 15 -19 325 -19 310 0 325 1 325 19 0 15
-10 19 -54 24 -29 3 -62 11 -73 18 -47 29 -48 32 -51 434 l-3 380 213 470
c118 259 221 482 231 496 21 32 52 46 117 55 32 4 50 11 50 20 0 11 -36 14
-190 14 -154 0 -190 -3 -190 -14 0 -9 18 -15 51 -19 28 -4 63 -14 76 -23 22
-14 25 -22 20 -55 -5 -41 -398 -911 -413 -916 -14 -5 -444 890 -444 924 0 44
20 55 121 67 61 7 89 14 89 23 0 10 -75 13 -375 13 -327 0 -375 -2 -375 -15z"/>
<path d="M2100 3477 c0 -2 43 -91 95 -198 l94 -194 1 128 c0 193 17 218 163
233 41 4 68 12 71 20 4 12 -32 14 -209 14 -118 0 -215 -2 -215 -3z"/>
<path d="M2842 3435 c-11 -23 -8 -26 51 -57 80 -42 203 -164 244 -243 102
-195 129 -521 63 -781 -63 -250 -222 -416 -450 -471 -51 -12 -70 -21 -70 -33
0 -14 9 -15 73 -8 395 47 649 274 713 640 20 113 14 358 -10 456 -22 87 -78
204 -128 270 -78 101 -219 189 -369 231 -95 27 -103 26 -117 -4z"/>
</g>
</svg>
